# xmcd
#
# Track frame offsets: 
#        150
#        20365
#        46393
#        67553
#        105436
#        124856
#        151563
#        175907
#        188263
#        203929
#        217333
#
# Disc length: 3276 seconds
#
# Revision: 2
# Processed by: cddbd v1.5.1PL2 Copyright (c) Steve Scherf et al.
# Submitted via: ExactAudioCopy v0.90b4
#
DISCID=860cca0b
DTITLE=Tab Benoit - Voice of the Wetlands
DYEAR=2005
DGENRE=Blues
TTITLE0=Bayou Breeze
TTITLE1=Louisiana Sunshine
TTITLE2=Clean Water
TTITLE3=Lightning and Thunder
TTITLE4=Kiddin' Me
TTITLE5=Heart of Stone
TTITLE6=We Ain't Gonna Lose No More (Without a Fight)
TTITLE7=Weary Silent Night
TTITLE8=We Make a Good Gumbo
TTITLE9=Louisiana Man
TTITLE10=Me Donkey Want Water
EXTD=YEAR: 2005
EXTT0=
EXTT1=
EXTT2=
EXTT3=
EXTT4=
EXTT5=
EXTT6=
EXTT7=
EXTT8=
EXTT9=
EXTT10=
PLAYORDER=
